<?xml version="1.0" standalone="no"?>
<!DOCTYPE svg PUBLIC "-//W3C//DTD SVG 20010904//EN"
 "http://www.w3.org/TR/2001/REC-SVG-20010904/DTD/svg10.dtd">
<svg version="1.0" xmlns="http://www.w3.org/2000/svg"
 width="300.000000pt" height="300.000000pt" viewBox="0 0 300.000000 300.000000"
 preserveAspectRatio="xMidYMid meet">
<metadata>
Created by potrace 1.11, written by Peter Selinger 2001-2013
</metadata>
<g transform="translate(0.000000,300.000000) scale(0.100000,-0.100000)"
fill="#000000" stroke="none">
<path d="M1355 2453 l-305 -255 0 -407 c0 -223 -3 -423 -7 -444 -4 -25 -20
-54 -49 -85 l-43 -47 -18 25 c-113 154 -166 319 -164 511 2 180 48 327 145
462 49 70 167 186 239 237 52 37 56 47 29 80 l-19 23 -74 -48 c-395 -255 -580
-549 -580 -925 0 -403 240 -760 606 -901 138 -54 250 -72 405 -66 263 10 496
99 674 258 58 51 206 227 206 244 0 6 -11 22 -24 34 l-24 23 -93 -72 c-112
-85 -264 -162 -374 -191 -44 -11 -126 -23 -182 -26 l-103 -6 0 209 c0 115 -3
467 -7 782 l-6 574 39 -17 c134 -59 250 -100 346 -121 61 -14 116 -24 123 -22
7 2 66 52 130 112 104 98 116 112 110 135 -4 14 -10 30 -15 35 -5 5 -55 11
-112 13 -161 5 -296 35 -480 106 l-67 26 -306 -256z m152 -1559 c-8 -8 -143
24 -207 49 -87 36 -163 84 -236 150 l-63 58 77 68 c120 106 232 228 255 279
21 45 22 64 27 440 l5 393 65 55 65 55 9 -771 c4 -424 6 -773 3 -776z"/>
</g>
</svg>
